<svg width="946" height="1050" viewBox="0 0 946 1050" xmlns="http://www.w3.org/2000/svg" xmlns:xlink="http://www.w3.org/1999/xlink" stroke-linecap="round" stroke-linejoin="round" stroke-miterlimit="1.5" fill="none" fill-rule="evenodd" clip-rule="evenodd" overflow="hidden"><rect x="0" y="0" width="946" height="1050" fill="#FFFFFF"/><g id="items"><g id="blend"><g id="g-root-tf_4mc1j01y8xybu-fill" transform="translate(-9 -9)"><g id="tf_4mc1j01y8xybu-fill" fill="#FFFFFF"><g><path d="M10 10 954 10 954 1058 10 1058Z"/></g></g></g><g id="g-root-tx_builtupi_4n4581y8wjk0-fill" transform="translate(227 327)"><g id="tx_builtupi_4n4581y8wjk0-fill" fill="#484848"><g><text font-family="Roboto,Arial" font-size="20" xml:space="preserve"><tspan x="12" y="46">Built-up Index</tspan></text></g></g></g><g id="g-root-tx_landsurf_1cxepbw1y8wjkc-fill" transform="translate(227 39)"><g id="tx_landsurf_1cxepbw1y8wjkc-fill" fill="#484848"><g><text font-family="Roboto,Arial" font-size="20" xml:space="preserve"><tspan x="12" y="46">Land Surface </tspan><tspan x="12" y="70">Temperature</tspan></text></g></g></g><g id="g-root-tx_healthca_145ijlo1y8wj5u-fill" transform="translate(227 727)"><g id="tx_healthca_145ijlo1y8wj5u-fill" fill="#484848"><g><text font-family="Roboto,Arial" font-size="20" xml:space="preserve"><tspan x="12" y="34">Healthcare </tspan><tspan x="12" y="58">Access</tspan></text></g></g></g><g id="g-root-tx_chronicd_v8ml6k1y8whs6-fill" transform="translate(227 407)"><g id="tx_chronicd_v8ml6k1y8whs6-fill" fill="#484848"><g><text font-family="Roboto,Arial" font-size="20" xml:space="preserve"><tspan x="12" y="34">Chronic </tspan><tspan x="12" y="58">Diseases</tspan></text></g></g></g><g id="g-root-tx_vegetati_v6r5x81y8wirp-fill" transform="translate(227 143)"><g id="tx_vegetati_v6r5x81y8wirp-fill" fill="#484848"><g><text font-family="Roboto,Arial" font-size="20" xml:space="preserve"><tspan x="12" y="34">Vegetation </tspan><tspan x="12" y="58">Index</tspan></text></g></g></g><g id="g-root-tx_greeninf_93ehto1y8wjy8-fill" transform="translate(227 943)"><g id="tx_greeninf_93ehto1y8wjy8-fill" fill="#484848"><g><text font-family="Roboto,Arial" font-size="20" xml:space="preserve"><tspan x="12" y="34">Green </tspan><tspan x="12" y="58">Infrastructure</tspan></text></g></g></g><g id="g-root-tx_spatials_qvxgho1y8wjrc-fill" transform="translate(791 527)"><g id="tx_spatials_qvxgho1y8wjrc-fill" fill="#484848"><g><text font-family="Roboto,Arial" font-size="20" xml:space="preserve"><tspan x="12" y="34">Spatial </tspan><tspan x="12" y="58">Statistics</tspan></text></g></g></g><g id="g-root-tx_agestruc_dhckos1y8wk5e-fill" transform="translate(227 567)"><g id="tx_agestruc_dhckos1y8wk5e-fill" fill="#484848"><g><text font-family="Roboto,Arial" font-size="20" xml:space="preserve"><tspan x="12" y="46">Age Structure</tspan></text></g></g></g><g id="g-root-tx_adaptive_1hgz1z01y8whkw-fill" transform="translate(15 847)"><g id="tx_adaptive_1hgz1z01y8whkw-fill" fill="#484848"><g><text font-family="Roboto,Arial" font-size="20" xml:space="preserve"><tspan x="12" y="34">Adaptive </tspan><tspan x="12" y="58">Dimension</tspan></text></g></g></g><g id="g-root-tx_environm_3e5z01y8whdv-fill" transform="translate(15 183)"><g id="tx_environm_3e5z01y8whdv-fill" fill="#484848"><g><text font-family="Roboto,Arial" font-size="20" xml:space="preserve"><tspan x="12" y="34">Environmental </tspan><tspan x="12" y="58">Dimension</tspan></text></g></g></g><g id="g-root-tx_environm_1lux4u41y8whs2-fill" transform="translate(427 183)"><g id="tx_environm_1lux4u41y8whs2-fill" fill="#484848"><g><text font-family="Roboto,Arial" font-size="20" xml:space="preserve"><tspan x="12" y="34">Environmental </tspan><tspan x="12" y="58">Exposure</tspan></text></g></g></g><g id="g-root-tx_principa_147dyv01y8wi6e-fill" transform="translate(791 423)"><g id="tx_principa_147dyv01y8wi6e-fill" fill="#484848"><g><text font-family="Roboto,Arial" font-size="20" xml:space="preserve"><tspan x="12" y="34">Principal </tspan><tspan x="12" y="58">Component </tspan><tspan x="12" y="82">Analysis</tspan></text></g></g></g><g id="g-root-tx_adaptive_1utoiik1y8wi6a-fill" transform="translate(427 847)"><g id="tx_adaptive_1utoiik1y8wi6a-fill" fill="#484848"><g><text font-family="Roboto,Arial" font-size="20" xml:space="preserve"><tspan x="12" y="34">Adaptive </tspan><tspan x="12" y="58">Capacity</tspan></text></g></g></g><g id="g-root-tx_lisaclus_mgqfgc1y8whdu-fill" transform="translate(791 607)"><g id="tx_lisaclus_mgqfgc1y8whdu-fill" fill="#484848"><g><text font-family="Roboto,Arial" font-size="20" xml:space="preserve"><tspan x="12" y="34">LISA </tspan><tspan x="12" y="58">Clustering</tspan></text></g></g></g><g id="g-root-tx_infectio_qst3241y8wikg-fill" transform="translate(227 487)"><g id="tx_infectio_qst3241y8wikg-fill" fill="#484848"><g><text font-family="Roboto,Arial" font-size="20" xml:space="preserve"><tspan x="12" y="34">Infectious </tspan><tspan x="12" y="58">Diseases</tspan></text></g></g></g><g id="g-root-tx_medicali_v9vjcs1y8wjyk-fill" transform="translate(227 807)"><g id="tx_medicali_v9vjcs1y8wjyk-fill" fill="#484848"><g><text font-family="Roboto,Arial" font-size="20" xml:space="preserve"><tspan x="12" y="34">Medical </tspan><tspan x="12" y="58">Insurance</tspan></text></g></g></g><g id="g-root-tx_povertyi_6ijek1y8wikk-fill" transform="translate(227 647)"><g id="tx_povertyi_6ijek1y8wikk-fill" fill="#484848"><g><text font-family="Roboto,Arial" font-size="20" xml:space="preserve"><tspan x="12" y="46">Poverty Index</tspan></text></g></g></g><g id="g-root-tx_infrastr_hz1i2k1y8widq-fill" transform="translate(227 887)"><g id="tx_infrastr_hz1i2k1y8widq-fill" fill="#484848"><g><text font-family="Roboto,Arial" font-size="20" xml:space="preserve"><tspan x="12" y="34">Infrastructure</tspan></text></g></g></g><g id="g-root-tx_analysis_1hi80581y8wjr8-fill" transform="translate(639 539)"><g id="tx_analysis_1hi80581y8wjr8-fill" fill="#484848"><g><text font-family="Roboto,Arial" font-size="20" xml:space="preserve"><tspan x="12" y="34">Analysis</tspan></text></g></g></g><g id="g-root-tx_urbanthe_90a4e41y8whzi-fill" transform="translate(227 223)"><g id="tx_urbanthe_90a4e41y8whzi-fill" fill="#484848"><g><text font-family="Roboto,Arial" font-size="20" xml:space="preserve"><tspan x="12" y="46">Urban </tspan><tspan x="12" y="70">Thermal Field</tspan></text></g></g></g><g id="g-root-tx_sensitiv_18jgmgs1y8wjd0-fill" transform="translate(15 527)"><g id="tx_sensitiv_18jgmgs1y8wjd0-fill" fill="#484848"><g><text font-family="Roboto,Arial" font-size="20" xml:space="preserve"><tspan x="12" y="34">Sensitivity </tspan><tspan x="12" y="58">Dimension</tspan></text></g></g></g><g id="g-root-tx_populati_1qbzl4s1y8wj66-fill" transform="translate(427 527)"><g id="tx_populati_1qbzl4s1y8wj66-fill" fill="#484848"><g><text font-family="Roboto,Arial" font-size="20" xml:space="preserve"><tspan x="12" y="34">Population </tspan><tspan x="12" y="58">Sensitivity</tspan></text></g></g></g><g id="g-root-cu_hx62t81y8xybx-fill" transform="translate(165 871)"></g><g id="g-root-cu_925jng1y8xwr3-fill" transform="translate(165 551)"></g><g id="g-root-cu_925jng1y8xxjb-fill" transform="translate(365 75)"></g><g id="g-root-cu_dhz1rw1y8xwqq-fill" transform="translate(165 551)"></g><g id="g-root-cu_hxsjwc1y8xvy9-fill" transform="translate(365 551)"></g><g id="g-root-cu_dhz1rw1y8xvym-fill" transform="translate(365 551)"></g><g id="g-root-cu_925jng1y8xxj9-fill" transform="translate(365 167)"></g><g id="g-root-cu_dhz1rw1y8xvyk-fill" transform="translate(165 751)"></g><g id="g-root-cu_925jng1y8xxjd-fill" transform="translate(165 207)"></g><g id="g-root-cu_925jng1y8xxjg-fill" transform="translate(165 207)"></g><g id="g-root-cu_925jng1y8xxj7-fill" transform="translate(365 207)"></g><g id="g-root-cu_dhz1rw1y8xwqw-fill" transform="translate(365 207)"></g><g id="g-root-cu_mczkxo1y8xybk-fill" transform="translate(165 871)"></g><g id="g-root-cu_v8ml6k1y8xwqo-fill" transform="translate(577 551)"></g><g id="g-root-cu_mczkxo1y8xxje-fill" transform="translate(577 207)"></g><g id="g-root-cu_qst3241y8xwr1-fill" transform="translate(577 551)"></g><g id="g-root-cu_mczkxo1y8xxjj-fill" transform="translate(365 871)"></g><g id="g-root-cu_hx62t81y8xybv-fill" transform="translate(365 751)"></g><g id="g-root-cu_v8ml6k1y8xvym-fill" transform="translate(729 551)"></g><g id="g-root-cu_dhz1rw1y8xwqu-fill" transform="translate(165 431)"></g><g id="g-root-cu_zog3b01y8xvy9-fill" transform="translate(729 551)"></g><g id="g-root-cu_mczkxo1y8xybm-fill" transform="translate(165 831)"></g><g id="g-root-cu_hxsjwc1y8xvyd-fill" transform="translate(365 431)"></g><g id="g-root-cu_qst3241y8xwqz-fill" transform="translate(729 459)"></g><g id="g-root-cu_mczkxo1y8xxjg-fill" transform="translate(365 871)"></g><g id="g-root-cu_dhz1rw1y8xwqs-fill" transform="translate(165 511)"></g><g id="g-root-cu_4mc1j01y8xybs-fill" transform="translate(165 75)"></g><g id="g-root-cu_qst3241y8xxj5-fill" transform="translate(365 831)"></g><g id="g-root-cu_hxsjwc1y8xvyb-fill" transform="translate(365 511)"></g><g id="g-root-cu_4mc1j01y8xybq-fill" transform="translate(165 167)"></g><g id="g-root-tf_4mc1j01y8xybu-stroke" transform="translate(-9 -9)"></g><g id="g-root-tx_builtupi_4n4581y8wjk0-stroke" transform="translate(227 327)"></g><g id="g-root-tx_landsurf_1cxepbw1y8wjkc-stroke" transform="translate(227 39)"></g><g id="g-root-tx_healthca_145ijlo1y8wj5u-stroke" transform="translate(227 727)"></g><g id="g-root-tx_chronicd_v8ml6k1y8whs6-stroke" transform="translate(227 407)"></g><g id="g-root-tx_vegetati_v6r5x81y8wirp-stroke" transform="translate(227 143)"></g><g id="g-root-tx_greeninf_93ehto1y8wjy8-stroke" transform="translate(227 943)"></g><g id="g-root-tx_spatials_qvxgho1y8wjrc-stroke" transform="translate(791 527)"></g><g id="g-root-tx_agestruc_dhckos1y8wk5e-stroke" transform="translate(227 567)"></g><g id="g-root-tx_adaptive_1hgz1z01y8whkw-stroke" transform="translate(15 847)"></g><g id="g-root-tx_environm_3e5z01y8whdv-stroke" transform="translate(15 183)"></g><g id="g-root-tx_environm_1lux4u41y8whs2-stroke" transform="translate(427 183)"></g><g id="g-root-tx_principa_147dyv01y8wi6e-stroke" transform="translate(791 423)"></g><g id="g-root-tx_adaptive_1utoiik1y8wi6a-stroke" transform="translate(427 847)"></g><g id="g-root-tx_lisaclus_mgqfgc1y8whdu-stroke" transform="translate(791 607)"></g><g id="g-root-tx_infectio_qst3241y8wikg-stroke" transform="translate(227 487)"></g><g id="g-root-tx_medicali_v9vjcs1y8wjyk-stroke" transform="translate(227 807)"></g><g id="g-root-tx_povertyi_6ijek1y8wikk-stroke" transform="translate(227 647)"></g><g id="g-root-tx_infrastr_hz1i2k1y8widq-stroke" transform="translate(227 887)"></g><g id="g-root-tx_analysis_1hi80581y8wjr8-stroke" transform="translate(639 539)"></g><g id="g-root-tx_urbanthe_90a4e41y8whzi-stroke" transform="translate(227 223)"></g><g id="g-root-tx_sensitiv_18jgmgs1y8wjd0-stroke" transform="translate(15 527)"></g><g id="g-root-tx_populati_1qbzl4s1y8wj66-stroke" transform="translate(427 527)"></g><g id="g-root-cu_hx62t81y8xybx-stroke" transform="translate(165 871)"><g id="cu_hx62t81y8xybx-stroke" stroke="#484848" stroke-width="2" stroke-miterlimit="4"><g><path d="M10 10 24 10 38 10 38 58 38 106 52 106 64 106"/><path d="M58 112.5 64.5 106 58 99.5"/></g></g></g><g id="g-root-cu_925jng1y8xwr3-stroke" transform="translate(165 551)"><g id="cu_925jng1y8xwr3-stroke" stroke="#484848" stroke-width="2" stroke-miterlimit="4"><g><path d="M10 10 24 10 38 10 38 70 38 130 52 130 64 130"/><path d="M58 136.5 64.5 130 58 123.5"/></g></g></g><g id="g-root-cu_925jng1y8xxjb-stroke" transform="translate(365 75)"><g id="cu_925jng1y8xxjb-stroke" stroke="#484848" stroke-width="2" stroke-miterlimit="4"><g><path d="M10 10 24 10 38 10 38 76 38 142 52 142 64 142"/><path d="M58 148.5 64.5 142 58 135.5"/></g></g></g><g id="g-root-cu_dhz1rw1y8xwqq-stroke" transform="translate(165 551)"><g id="cu_dhz1rw1y8xwqq-stroke" stroke="#484848" stroke-width="2" stroke-miterlimit="4"><g><path d="M10 10 24 10 38 10 38 30 38 50 52 50 64 50"/><path d="M58 56.5 64.5 50 58 43.5"/></g></g></g><g id="g-root-cu_hxsjwc1y8xvy9-stroke" transform="translate(365 551)"><g id="cu_hxsjwc1y8xvy9-stroke" stroke="#484848" stroke-width="2" stroke-miterlimit="4"><g><path d="M10 50 24 50 38 50 38 30 38 10 52 10 64 10"/><path d="M58 16.5 64.5 10 58 3.5"/></g></g></g><g id="g-root-cu_dhz1rw1y8xvym-stroke" transform="translate(365 551)"><g id="cu_dhz1rw1y8xvym-stroke" stroke="#484848" stroke-width="2" stroke-miterlimit="4"><g><path d="M10 130 24 130 38 130 38 70 38 10 52 10 64 10"/><path d="M58 16.5 64.5 10 58 3.5"/></g></g></g><g id="g-root-cu_925jng1y8xxj9-stroke" transform="translate(365 167)"><g id="cu_925jng1y8xxj9-stroke" stroke="#484848" stroke-width="2" stroke-miterlimit="4"><g><path d="M10 10 24 10 38 10 38 30 38 50 52 50 64 50"/><path d="M58 56.5 64.5 50 58 43.5"/></g></g></g><g id="g-root-cu_dhz1rw1y8xvyk-stroke" transform="translate(165 751)"><g id="cu_dhz1rw1y8xvyk-stroke" stroke="#484848" stroke-width="2" stroke-miterlimit="4"><g><path d="M10 130 24 130 38 130 38 70 38 10 52 10 64 10"/><path d="M58 16.5 64.5 10 58 3.5"/></g></g></g><g id="g-root-cu_925jng1y8xxjd-stroke" transform="translate(165 207)"><g id="cu_925jng1y8xxjd-stroke" stroke="#484848" stroke-width="2" stroke-miterlimit="4"><g><path d="M10 10 24 10 38 10 38 82 38 154 52 154 64 154"/><path d="M58 160.5 64.5 154 58 147.5"/></g></g></g><g id="g-root-cu_925jng1y8xxjg-stroke" transform="translate(165 207)"><g id="cu_925jng1y8xxjg-stroke" stroke="#484848" stroke-width="2" stroke-miterlimit="4"><g><path d="M10 10 24 10 38 10 38 36 38 62 52 62 64 62"/><path d="M58 68.5 64.5 62 58 55.5"/></g></g></g><g id="g-root-cu_925jng1y8xxj7-stroke" transform="translate(365 207)"><g id="cu_925jng1y8xxj7-stroke" stroke="#484848" stroke-width="2" stroke-miterlimit="4"><g><path d="M10 62 24 62 38 62 38 36 38 10 52 10 64 10"/><path d="M58 16.5 64.5 10 58 3.5"/></g></g></g><g id="g-root-cu_dhz1rw1y8xwqw-stroke" transform="translate(365 207)"><g id="cu_dhz1rw1y8xwqw-stroke" stroke="#484848" stroke-width="2" stroke-miterlimit="4"><g><path d="M10 154 24 154 38 154 38 82 38 10 52 10 64 10"/><path d="M58 16.5 64.5 10 58 3.5"/></g></g></g><g id="g-root-cu_mczkxo1y8xybk-stroke" transform="translate(165 871)"><g id="cu_mczkxo1y8xybk-stroke" stroke="#484848" stroke-width="2" stroke-miterlimit="4"><g><path d="M10 10 24 10 38 10 38 24 38 38 52 38 64 38"/><path d="M58 44.5 64.5 38 58 31.5"/></g></g></g><g id="g-root-cu_v8ml6k1y8xwqo-stroke" transform="translate(577 551)"><g id="cu_v8ml6k1y8xwqo-stroke" stroke="#484848" stroke-width="2" stroke-miterlimit="4"><g><path d="M10 10 38 10 64 10"/><path d="M58 16.5 64.5 10 58 3.5"/></g></g></g><g id="g-root-cu_mczkxo1y8xxje-stroke" transform="translate(577 207)"><g id="cu_mczkxo1y8xxje-stroke" stroke="#484848" stroke-width="2" stroke-miterlimit="4"><g><path d="M10 10 24 10 38 10 38 182 38 354 52 354 64 354"/><path d="M58 360.5 64.5 354 58 347.5"/></g></g></g><g id="g-root-cu_qst3241y8xwr1-stroke" transform="translate(577 551)"><g id="cu_qst3241y8xwr1-stroke" stroke="#484848" stroke-width="2" stroke-miterlimit="4"><g><path d="M10 330 24 330 38 330 38 170 38 10 52 10 64 10"/><path d="M58 16.5 64.5 10 58 3.5"/></g></g></g><g id="g-root-cu_mczkxo1y8xxjj-stroke" transform="translate(365 871)"><g id="cu_mczkxo1y8xxjj-stroke" stroke="#484848" stroke-width="2" stroke-miterlimit="4"><g><path d="M10 38 24 38 38 38 38 24 38 10 52 10 64 10"/><path d="M58 16.5 64.5 10 58 3.5"/></g></g></g><g id="g-root-cu_hx62t81y8xybv-stroke" transform="translate(365 751)"><g id="cu_hx62t81y8xybv-stroke" stroke="#484848" stroke-width="2" stroke-miterlimit="4"><g><path d="M10 10 24 10 38 10 38 70 38 130 52 130 64 130"/><path d="M58 136.5 64.5 130 58 123.5"/></g></g></g><g id="g-root-cu_v8ml6k1y8xvym-stroke" transform="translate(729 551)"><g id="cu_v8ml6k1y8xvym-stroke" stroke="#484848" stroke-width="2" stroke-miterlimit="4"><g><path d="M10 10 24 10 38 10 38 50 38 90 52 90 64 90"/><path d="M58 96.5 64.5 90 58 83.5"/></g></g></g><g id="g-root-cu_dhz1rw1y8xwqu-stroke" transform="translate(165 431)"><g id="cu_dhz1rw1y8xwqu-stroke" stroke="#484848" stroke-width="2" stroke-miterlimit="4"><g><path d="M10 130 24 130 38 130 38 70 38 10 52 10 64 10"/><path d="M58 16.5 64.5 10 58 3.5"/></g></g></g><g id="g-root-cu_zog3b01y8xvy9-stroke" transform="translate(729 551)"><g id="cu_zog3b01y8xvy9-stroke" stroke="#484848" stroke-width="2" stroke-miterlimit="4"><g><path d="M10 10 38 10 64 10"/><path d="M58 16.5 64.5 10 58 3.5"/></g></g></g><g id="g-root-cu_mczkxo1y8xybm-stroke" transform="translate(165 831)"><g id="cu_mczkxo1y8xybm-stroke" stroke="#484848" stroke-width="2" stroke-miterlimit="4"><g><path d="M10 50 24 50 38 50 38 30 38 10 52 10 64 10"/><path d="M58 16.5 64.5 10 58 3.5"/></g></g></g><g id="g-root-cu_hxsjwc1y8xvyd-stroke" transform="translate(365 431)"><g id="cu_hxsjwc1y8xvyd-stroke" stroke="#484848" stroke-width="2" stroke-miterlimit="4"><g><path d="M10 10 24 10 38 10 38 70 38 130 52 130 64 130"/><path d="M58 136.5 64.5 130 58 123.5"/></g></g></g><g id="g-root-cu_qst3241y8xwqz-stroke" transform="translate(729 459)"><g id="cu_qst3241y8xwqz-stroke" stroke="#484848" stroke-width="2" stroke-miterlimit="4"><g><path d="M10 102 24 102 38 102 38 56 38 10 52 10 64 10"/><path d="M58 16.5 64.5 10 58 3.5"/></g></g></g><g id="g-root-cu_mczkxo1y8xxjg-stroke" transform="translate(365 871)"><g id="cu_mczkxo1y8xxjg-stroke" stroke="#484848" stroke-width="2" stroke-miterlimit="4"><g><path d="M10 106 24 106 38 106 38 58 38 10 52 10 64 10"/><path d="M58 16.5 64.5 10 58 3.5"/></g></g></g><g id="g-root-cu_dhz1rw1y8xwqs-stroke" transform="translate(165 511)"><g id="cu_dhz1rw1y8xwqs-stroke" stroke="#484848" stroke-width="2" stroke-miterlimit="4"><g><path d="M10 50 24 50 38 50 38 30 38 10 52 10 64 10"/><path d="M58 16.5 64.5 10 58 3.5"/></g></g></g><g id="g-root-cu_4mc1j01y8xybs-stroke" transform="translate(165 75)"><g id="cu_4mc1j01y8xybs-stroke" stroke="#484848" stroke-width="2" stroke-miterlimit="4"><g><path d="M10 142 24 142 38 142 38 76 38 10 52 10 64 10"/><path d="M58 16.5 64.5 10 58 3.5"/></g></g></g><g id="g-root-cu_qst3241y8xxj5-stroke" transform="translate(365 831)"><g id="cu_qst3241y8xxj5-stroke" stroke="#484848" stroke-width="2" stroke-miterlimit="4"><g><path d="M10 10 24 10 38 10 38 30 38 50 52 50 64 50"/><path d="M58 56.5 64.5 50 58 43.5"/></g></g></g><g id="g-root-cu_hxsjwc1y8xvyb-stroke" transform="translate(365 511)"><g id="cu_hxsjwc1y8xvyb-stroke" stroke="#484848" stroke-width="2" stroke-miterlimit="4"><g><path d="M10 10 24 10 38 10 38 30 38 50 52 50 64 50"/><path d="M58 56.5 64.5 50 58 43.5"/></g></g></g><g id="g-root-cu_4mc1j01y8xybq-stroke" transform="translate(165 167)"><g id="cu_4mc1j01y8xybq-stroke" stroke="#484848" stroke-width="2" stroke-miterlimit="4"><g><path d="M10 50 24 50 38 50 38 30 38 10 52 10 64 10"/><path d="M58 16.5 64.5 10 58 3.5"/></g></g></g></g></g></svg>